<svg width="40" height="40" viewBox="0 0 40 40" fill="none" xmlns="http://www.w3.org/2000/svg">
<path d="M20 1.59998C9.85437 1.59998 1.59997 9.85438 1.59997 20C1.59997 23.168 2.41837 26.2832 3.97037 29.032L1.62957 37.384C1.55277 37.6584 1.62717 37.9528 1.82557 38.1568C1.97837 38.3144 2.18637 38.4 2.39997 38.4C2.46397 38.4 2.52877 38.392 2.59197 38.3768L11.3088 36.2176C13.9704 37.6464 16.968 38.4 20 38.4C30.1456 38.4 38.4 30.1456 38.4 20C38.4 9.85438 30.1456 1.59998 20 1.59998ZM29.256 26.4928C28.8624 27.5824 26.9744 28.5768 26.0672 28.7104C25.2528 28.8296 24.2224 28.8808 23.0912 28.5256C22.4056 28.3096 21.5256 28.0232 20.3984 27.5424C15.66 25.5216 12.5656 20.8104 12.3288 20.4992C12.0928 20.188 10.4 17.9704 10.4 15.6752C10.4 13.38 11.62 12.2512 12.0536 11.784C12.4872 11.3168 12.9984 11.2 13.3136 11.2C13.6288 11.2 13.9432 11.204 14.2192 11.2168C14.5096 11.2312 14.8992 11.1072 15.2824 12.0176C15.676 12.952 16.6208 15.2472 16.7376 15.4816C16.856 15.7152 16.9344 15.988 16.7776 16.2992C16.6208 16.6104 16.5424 16.8048 16.3056 17.0776C16.0688 17.3504 15.8096 17.6856 15.5968 17.8952C15.36 18.128 15.1144 18.38 15.3896 18.8472C15.6648 19.3144 16.6128 20.8416 18.0176 22.0784C19.8216 23.6672 21.344 24.16 21.816 24.3936C22.288 24.6272 22.564 24.588 22.8392 24.2768C23.1144 23.9648 24.02 22.9144 24.3344 22.448C24.6488 21.9816 24.964 22.0584 25.3976 22.2144C25.8312 22.3696 28.1536 23.4976 28.6256 23.7312C29.0976 23.9648 29.4128 24.0816 29.5312 24.276C29.6496 24.4696 29.6496 25.404 29.256 26.4928Z" fill="#505050"/>
</svg>
